<svg xmlns="http://www.w3.org/2000/svg" id="Layer_1" viewBox="0 0 495.6 307.2"><style>.st0{fill:#fff}</style><path class="st0" d="M126.4 176H28.6v18.4h37.3v113.1h23.2V194.4h37.3zm37.5 131.5h-28.1V107h64.7c36.7 0 66.6 29.9 66.6 66.6s-29.9 66.6-66.6 66.6H164v67.3zm0-96.2l37.5.8c26.6 0 40.1-20.7 40.1-38.5 0-23.9-18.6-39.6-45.2-39.6h-32.4v77.3zm233.5 96.2c-27.9 0-48.8-7.9-63.5-17.2-36.4-22.8-57.3-66.9-57.3-121 0-52.2 24.5-97.5 65.6-121.3 20.6-11.9 44.7-17.7 69.7-16.6 27.1 1.1 55.2 8.6 83.3 24.8v41.5c-47-41.5-109.6-35.6-131.6-22.8-35.4 20.5-52 49-52 94.5 0 47.6 12.5 77 43.4 96.3 35.2 22 102.9 5.8 140.2-27.4l-.6 43.3c-39.1 19.1-71.2 25.9-97.2 25.9z"/><path class="st0" d="M18.3 307.5H0v-152c0-5.1 4.1-9.2 9.2-9.2h95.6V84.8c0-5.1 4.1-9.2 9.2-9.2h127.8V9.2c0-5.1 4.1-9.2 9.2-9.2h244.3v18.3H260.1v66.5c0 5.1-4.1 9.2-9.2 9.2H123.2v61.6c0 5.1-4.1 9.2-9.2 9.2H18.3v142.7z"/></svg>